<svg width="176" height="90" viewBox="0 0 176 90" fill="none" xmlns="http://www.w3.org/2000/svg">
<path d="M25.9688 24.5312C20.2396 24.5312 15.7292 26.3646 12.4375 30.0312C9.14583 33.6979 7.5 38.7188 7.5 45.0938C7.5 51.6146 9.05208 56.6771 12.1562 60.2812C15.2604 63.8854 19.6979 65.6875 25.4688 65.6875C29.3021 65.6875 32.8229 65.1979 36.0312 64.2188V67.0312C33.0104 68.0938 29.2396 68.625 24.7188 68.625C18.3021 68.625 13.25 66.5521 9.5625 62.4062C5.875 58.2604 4.03125 52.4688 4.03125 45.0312C4.03125 40.3854 4.90625 36.2917 6.65625 32.75C8.42708 29.2083 10.9583 26.4792 14.25 24.5625C17.5625 22.625 21.4062 21.6562 25.7812 21.6562C30.2396 21.6562 34.2292 22.4896 37.75 24.1562L36.4688 27.0312C33.1354 25.3646 29.6354 24.5312 25.9688 24.5312ZM68.2188 51.875H49.6562L43.2812 68H39.75L58.125 22.125H60.1562L78.1562 68H74.5625L68.2188 51.875ZM50.8125 49H67.1562L60.9375 32.5312C60.4167 31.2396 59.7917 29.4479 59.0625 27.1562C58.5 29.1562 57.8854 30.9688 57.2188 32.5938L50.8125 49ZM109.875 56.2188C109.875 60.0312 108.469 63.0521 105.656 65.2812C102.865 67.5104 99.1458 68.625 94.5 68.625C88.9167 68.625 84.6354 68.0104 81.6562 66.7812V63.5938C84.9479 64.9896 89.1458 65.6875 94.25 65.6875C98 65.6875 100.969 64.8333 103.156 63.125C105.365 61.3958 106.469 59.1354 106.469 56.3438C106.469 54.6146 106.104 53.1875 105.375 52.0625C104.646 50.9167 103.458 49.875 101.812 48.9375C100.167 48 97.75 46.9896 94.5625 45.9062C89.8958 44.3021 86.6667 42.5729 84.875 40.7188C83.1042 38.8438 82.2188 36.3542 82.2188 33.25C82.2188 29.8333 83.5521 27.0521 86.2188 24.9062C88.9062 22.7396 92.3542 21.6562 96.5625 21.6562C100.854 21.6562 104.885 22.4688 108.656 24.0938L107.5 26.8438C103.708 25.2604 100.083 24.4688 96.625 24.4688C93.25 24.4688 90.5625 25.25 88.5625 26.8125C86.5625 28.375 85.5625 30.5 85.5625 33.1875C85.5625 34.875 85.8646 36.2604 86.4688 37.3438C87.0938 38.4271 88.1042 39.4062 89.5 40.2812C90.8958 41.1354 93.2917 42.1667 96.6875 43.375C100.25 44.6042 102.927 45.8021 104.719 46.9688C106.51 48.1146 107.812 49.4271 108.625 50.9062C109.458 52.3646 109.875 54.1354 109.875 56.2188ZM144.75 56.2188C144.75 60.0312 143.344 63.0521 140.531 65.2812C137.74 67.5104 134.021 68.625 129.375 68.625C123.792 68.625 119.51 68.0104 116.531 66.7812V63.5938C119.823 64.9896 124.021 65.6875 129.125 65.6875C132.875 65.6875 135.844 64.8333 138.031 63.125C140.24 61.3958 141.344 59.1354 141.344 56.3438C141.344 54.6146 140.979 53.1875 140.25 52.0625C139.521 50.9167 138.333 49.875 136.688 48.9375C135.042 48 132.625 46.9896 129.438 45.9062C124.771 44.3021 121.542 42.5729 119.75 40.7188C117.979 38.8438 117.094 36.3542 117.094 33.25C117.094 29.8333 118.427 27.0521 121.094 24.9062C123.781 22.7396 127.229 21.6562 131.438 21.6562C135.729 21.6562 139.76 22.4688 143.531 24.0938L142.375 26.8438C138.583 25.2604 134.958 24.4688 131.5 24.4688C128.125 24.4688 125.438 25.25 123.438 26.8125C121.438 28.375 120.438 30.5 120.438 33.1875C120.438 34.875 120.74 36.2604 121.344 37.3438C121.969 38.4271 122.979 39.4062 124.375 40.2812C125.771 41.1354 128.167 42.1667 131.562 43.375C135.125 44.6042 137.802 45.8021 139.594 46.9688C141.385 48.1146 142.688 49.4271 143.5 50.9062C144.333 52.3646 144.75 54.1354 144.75 56.2188Z" fill="white"/>
<path d="M120.178 78.4336H122.598C123.734 78.4336 124.557 78.6035 125.064 78.9434C125.572 79.2832 125.826 79.8203 125.826 80.5547C125.826 81.0625 125.684 81.4824 125.398 81.8145C125.117 82.1426 124.705 82.3555 124.162 82.4531V82.5117C125.463 82.7344 126.113 83.418 126.113 84.5625C126.113 85.3281 125.854 85.9258 125.334 86.3555C124.818 86.7852 124.096 87 123.166 87H120.178V78.4336ZM121.174 82.1016H122.814C123.518 82.1016 124.023 81.9922 124.332 81.7734C124.641 81.5508 124.795 81.1777 124.795 80.6543C124.795 80.1738 124.623 79.8281 124.279 79.6172C123.936 79.4023 123.389 79.2949 122.639 79.2949H121.174V82.1016ZM121.174 82.9453V86.1504H122.961C123.652 86.1504 124.172 86.0176 124.52 85.752C124.871 85.4824 125.047 85.0625 125.047 84.4922C125.047 83.9609 124.867 83.5703 124.508 83.3203C124.152 83.0703 123.609 82.9453 122.879 82.9453H121.174ZM126.793 80.5781H127.836L129.242 84.2402C129.551 85.0762 129.742 85.6797 129.816 86.0508H129.863C129.914 85.8516 130.02 85.5117 130.18 85.0312C130.344 84.5469 130.875 83.0625 131.773 80.5781H132.816L130.057 87.8906C129.783 88.6133 129.463 89.125 129.096 89.4258C128.732 89.7305 128.285 89.8828 127.754 89.8828C127.457 89.8828 127.164 89.8496 126.875 89.7832V89.0039C127.09 89.0508 127.33 89.0742 127.596 89.0742C128.264 89.0742 128.74 88.6992 129.025 87.9492L129.383 87.0352L126.793 80.5781ZM142.508 87L141.441 84.2754H138.008L136.953 87H135.945L139.332 78.3984H140.17L143.539 87H142.508ZM141.131 83.3789L140.135 80.7246C140.006 80.3887 139.873 79.9766 139.736 79.4883C139.65 79.8633 139.527 80.2754 139.367 80.7246L138.359 83.3789H141.131ZM151.408 87H150.271L145.59 79.8105H145.543C145.605 80.6543 145.637 81.4277 145.637 82.1309V87H144.717V78.4336H145.842L150.512 85.5938H150.559C150.551 85.4883 150.533 85.1504 150.506 84.5801C150.479 84.0059 150.469 83.5957 150.477 83.3496V78.4336H151.408V87ZM158.955 87H153.066V86.2207L157.613 79.3301H153.207V78.4336H158.826V79.2129L154.279 86.0977H158.955V87ZM165.395 87H160.619V78.4336H165.395V79.3184H161.615V82.0781H165.166V82.957H161.615V86.1094H165.395V87ZM173.99 87H172.854L168.172 79.8105H168.125C168.188 80.6543 168.219 81.4277 168.219 82.1309V87H167.299V78.4336H168.424L173.094 85.5938H173.141C173.133 85.4883 173.115 85.1504 173.088 84.5801C173.061 84.0059 173.051 83.5957 173.059 83.3496V78.4336H173.99V87Z" fill="white"/>
</svg>
