<svg width="469" height="384" viewBox="0 0 469 384" fill="none" xmlns="http://www.w3.org/2000/svg">
<path d="M231.296 154.96C226.112 154.96 221.248 153.968 216.704 151.984C212.224 150 208.256 147.248 204.8 143.728C201.408 140.144 198.752 136.048 196.832 131.44C194.912 126.768 193.952 121.776 193.952 116.464C193.952 111.216 194.88 106.288 196.736 101.68C198.656 97.008 201.312 92.912 204.704 89.392C208.16 85.872 212.128 83.12 216.608 81.136C221.152 79.088 226.048 78.064 231.296 78.064C235.904 78.064 240.096 78.736 243.872 80.08C247.648 81.424 251.296 83.568 254.816 86.512C255.648 87.152 256 87.984 255.872 89.008C255.744 89.968 255.264 90.64 254.432 91.024C254.24 91.792 253.632 92.272 252.608 92.464C251.648 92.656 250.688 92.368 249.728 91.6C247.232 89.424 244.512 87.824 241.568 86.8C238.624 85.712 235.2 85.168 231.296 85.168C227.136 85.168 223.232 86 219.584 87.664C216 89.328 212.832 91.6 210.08 94.48C207.328 97.36 205.152 100.688 203.552 104.464C202.016 108.24 201.248 112.24 201.248 116.464C201.248 120.816 202.016 124.88 203.552 128.656C205.152 132.432 207.328 135.76 210.08 138.64C212.832 141.52 216 143.792 219.584 145.456C223.232 147.056 227.136 147.856 231.296 147.856C238.208 147.856 244.512 145.616 250.208 141.136C251.36 140.24 252.576 140.112 253.856 140.752C255.2 141.392 255.872 142.48 255.872 144.016C255.872 145.04 255.52 145.936 254.816 146.704C251.552 149.712 247.904 151.856 243.872 153.136C239.84 154.352 235.648 154.96 231.296 154.96ZM267.535 154C266.063 154 265.007 153.392 264.367 152.176C263.727 150.96 263.663 149.776 264.175 148.624L292.399 81.616C293.103 79.888 294.319 79.024 296.047 79.024C297.711 79.024 298.895 79.888 299.599 81.616L327.919 148.72C328.495 149.936 328.399 151.12 327.631 152.272C326.927 153.424 325.903 154 324.559 154C322.831 154 321.647 153.232 321.007 151.696L314.671 136.144H277.423L270.991 151.696C270.671 152.464 270.191 153.04 269.551 153.424C268.975 153.808 268.303 154 267.535 154ZM280.111 129.712H311.983L296.047 91.216L280.111 129.712ZM362.203 154.96C356.059 154.96 350.619 153.648 345.883 151.024C341.211 148.4 337.883 144.912 335.898 140.56C335.387 139.536 335.355 138.608 335.803 137.776C336.315 136.88 337.147 136.272 338.299 135.952C339.195 135.696 340.059 135.792 340.891 136.24C341.787 136.688 342.459 137.36 342.907 138.256C344.379 141.072 346.811 143.376 350.203 145.168C353.595 146.96 357.595 147.856 362.203 147.856C367.259 147.856 371.419 146.64 374.683 144.208C378.011 141.712 379.675 138.128 379.675 133.456C379.675 129.552 378.235 126.192 375.355 123.376C372.475 120.56 367.963 118.768 361.819 118C354.331 117.104 348.475 114.8 344.251 111.088C340.027 107.312 337.915 102.704 337.915 97.264C337.915 93.36 338.939 89.968 340.987 87.088C343.099 84.208 345.979 82 349.627 80.464C353.275 78.864 357.467 78.064 362.203 78.064C367.515 78.064 372.059 79.28 375.835 81.712C379.611 84.08 382.523 86.896 384.571 90.16C385.211 91.184 385.403 92.176 385.147 93.136C384.955 94.096 384.411 94.832 383.515 95.344C382.555 95.792 381.563 95.856 380.539 95.536C379.579 95.216 378.843 94.608 378.331 93.712C376.859 91.472 374.843 89.52 372.283 87.856C369.787 86.128 366.395 85.232 362.107 85.168C357.051 85.168 352.987 86.256 349.915 88.432C346.843 90.544 345.307 93.648 345.307 97.744C345.307 101.008 346.619 103.856 349.243 106.288C351.931 108.72 356.667 110.416 363.451 111.376C371.451 112.528 377.371 114.992 381.211 118.768C385.115 122.48 387.067 127.344 387.067 133.36C387.067 137.968 385.947 141.904 383.707 145.168C381.531 148.368 378.555 150.8 374.779 152.464C371.003 154.128 366.811 154.96 362.203 154.96ZM425.765 154.96C419.621 154.96 414.181 153.648 409.445 151.024C404.773 148.4 401.445 144.912 399.461 140.56C398.949 139.536 398.917 138.608 399.365 137.776C399.877 136.88 400.709 136.272 401.861 135.952C402.757 135.696 403.621 135.792 404.453 136.24C405.349 136.688 406.021 137.36 406.469 138.256C407.941 141.072 410.373 143.376 413.765 145.168C417.157 146.96 421.157 147.856 425.765 147.856C430.821 147.856 434.981 146.64 438.245 144.208C441.573 141.712 443.237 138.128 443.237 133.456C443.237 129.552 441.797 126.192 438.917 123.376C436.037 120.56 431.525 118.768 425.381 118C417.893 117.104 412.037 114.8 407.813 111.088C403.589 107.312 401.477 102.704 401.477 97.264C401.477 93.36 402.501 89.968 404.549 87.088C406.661 84.208 409.541 82 413.189 80.464C416.837 78.864 421.029 78.064 425.765 78.064C431.077 78.064 435.621 79.28 439.397 81.712C443.173 84.08 446.085 86.896 448.133 90.16C448.773 91.184 448.965 92.176 448.709 93.136C448.517 94.096 447.973 94.832 447.077 95.344C446.117 95.792 445.125 95.856 444.101 95.536C443.141 95.216 442.405 94.608 441.893 93.712C440.421 91.472 438.405 89.52 435.845 87.856C433.349 86.128 429.957 85.232 425.669 85.168C420.613 85.168 416.549 86.256 413.477 88.432C410.405 90.544 408.869 93.648 408.869 97.744C408.869 101.008 410.181 103.856 412.805 106.288C415.493 108.72 420.229 110.416 427.013 111.376C435.013 112.528 440.933 114.992 444.773 118.768C448.677 122.48 450.629 127.344 450.629 133.36C450.629 137.968 449.509 141.904 447.269 145.168C445.093 148.368 442.117 150.8 438.341 152.464C434.565 154.128 430.373 154.96 425.765 154.96Z" fill="#505056"/>
<path d="M398.016 181C397.839 181 397.689 180.953 397.568 180.86C397.456 180.757 397.4 180.622 397.4 180.454V170.612C397.4 170.453 397.451 170.323 397.554 170.22C397.657 170.117 397.787 170.066 397.946 170.066H401.348C401.908 170.066 402.412 170.187 402.86 170.43C403.317 170.663 403.677 170.985 403.938 171.396C404.209 171.807 404.344 172.283 404.344 172.824C404.344 173.328 404.209 173.776 403.938 174.168C403.667 174.56 403.313 174.859 402.874 175.064C403.499 175.232 404.003 175.549 404.386 176.016C404.769 176.473 404.96 177.057 404.96 177.766C404.96 178.401 404.815 178.961 404.526 179.446C404.237 179.931 403.835 180.314 403.322 180.594C402.818 180.865 402.239 181 401.586 181H398.016ZM398.492 174.63H401.348C401.908 174.63 402.37 174.471 402.734 174.154C403.098 173.837 403.28 173.393 403.28 172.824C403.28 172.264 403.098 171.839 402.734 171.55C402.37 171.261 401.908 171.116 401.348 171.116H398.492V174.63ZM398.492 179.95H401.586C402.258 179.95 402.809 179.754 403.238 179.362C403.667 178.97 403.882 178.438 403.882 177.766C403.882 177.131 403.667 176.627 403.238 176.254C402.809 175.871 402.258 175.68 401.586 175.68H398.492V179.95ZM408.31 184.332C408.236 184.332 408.152 184.313 408.058 184.276C407.741 184.136 407.652 183.912 407.792 183.604L409.192 180.538L409.178 180.524L406.056 174.056C405.991 173.916 405.982 173.785 406.028 173.664C406.075 173.543 406.168 173.449 406.308 173.384C406.616 173.244 406.84 173.323 406.98 173.622L409.71 179.376L412.314 173.636C412.454 173.337 412.678 173.253 412.986 173.384C413.304 173.515 413.392 173.734 413.252 174.042L408.716 184.01C408.623 184.225 408.488 184.332 408.31 184.332ZM418.304 181C418.089 181 417.935 180.911 417.842 180.734C417.749 180.557 417.739 180.384 417.814 180.216L421.93 170.444C422.033 170.192 422.21 170.066 422.462 170.066C422.705 170.066 422.877 170.192 422.98 170.444L427.11 180.23C427.194 180.407 427.18 180.58 427.068 180.748C426.965 180.916 426.816 181 426.62 181C426.368 181 426.195 180.888 426.102 180.664L425.178 178.396H419.746L418.808 180.664C418.761 180.776 418.691 180.86 418.598 180.916C418.514 180.972 418.416 181 418.304 181ZM420.138 177.458H424.786L422.462 171.844L420.138 177.458ZM429.296 181C429.137 181 429.006 180.949 428.904 180.846C428.801 180.743 428.75 180.613 428.75 180.454V170.612C428.75 170.453 428.801 170.323 428.904 170.22C429.006 170.117 429.137 170.066 429.296 170.066C429.464 170.066 429.604 170.131 429.716 170.262L436.408 179.054V170.612C436.408 170.453 436.459 170.323 436.562 170.22C436.664 170.117 436.795 170.066 436.954 170.066C437.103 170.066 437.229 170.117 437.332 170.22C437.444 170.323 437.5 170.453 437.5 170.612V180.454C437.5 180.613 437.444 180.743 437.332 180.846C437.229 180.949 437.103 181 436.954 181C436.776 181 436.641 180.939 436.548 180.818L429.842 172.026V180.454C429.842 180.613 429.786 180.743 429.674 180.846C429.571 180.949 429.445 181 429.296 181ZM440.134 181C439.976 181 439.845 180.949 439.742 180.846C439.649 180.743 439.598 180.627 439.588 180.496C439.579 180.356 439.616 180.23 439.7 180.118L446.938 171.046H440.19C439.826 171.046 439.649 170.887 439.658 170.57C439.658 170.43 439.71 170.313 439.812 170.22C439.915 170.117 440.046 170.066 440.204 170.066H447.792C447.96 170.066 448.091 170.117 448.184 170.22C448.278 170.323 448.329 170.444 448.338 170.584C448.357 170.715 448.324 170.827 448.24 170.92L440.974 180.02H447.792C447.942 180.02 448.068 180.067 448.17 180.16C448.282 180.244 448.338 180.361 448.338 180.51C448.338 180.65 448.282 180.767 448.17 180.86C448.068 180.953 447.942 181 447.792 181H440.134ZM450.979 181C450.821 181 450.69 180.949 450.587 180.846C450.485 180.743 450.433 180.613 450.433 180.454V170.612C450.433 170.453 450.485 170.323 450.587 170.22C450.69 170.117 450.821 170.066 450.979 170.066H457.545C457.695 170.066 457.821 170.117 457.923 170.22C458.035 170.313 458.091 170.439 458.091 170.598C458.091 170.738 458.035 170.859 457.923 170.962C457.821 171.065 457.695 171.116 457.545 171.116H451.525V174.98H455.907C456.066 174.98 456.197 175.031 456.299 175.134C456.402 175.237 456.453 175.363 456.453 175.512C456.453 175.661 456.402 175.787 456.299 175.89C456.197 175.993 456.066 176.044 455.907 176.044H451.525V179.95H457.545C457.695 179.95 457.821 180.001 457.923 180.104C458.035 180.207 458.091 180.328 458.091 180.468C458.091 180.627 458.035 180.757 457.923 180.86C457.821 180.953 457.695 181 457.545 181H450.979ZM460.673 181C460.514 181 460.383 180.949 460.281 180.846C460.178 180.743 460.127 180.613 460.127 180.454V170.612C460.127 170.453 460.178 170.323 460.281 170.22C460.383 170.117 460.514 170.066 460.673 170.066C460.841 170.066 460.981 170.131 461.093 170.262L467.785 179.054V170.612C467.785 170.453 467.836 170.323 467.939 170.22C468.041 170.117 468.172 170.066 468.331 170.066C468.48 170.066 468.606 170.117 468.709 170.22C468.821 170.323 468.877 170.453 468.877 170.612V180.454C468.877 180.613 468.821 180.743 468.709 180.846C468.606 180.949 468.48 181 468.331 181C468.153 181 468.018 180.939 467.925 180.818L461.219 172.026V180.454C461.219 180.613 461.163 180.743 461.051 180.846C460.948 180.949 460.822 181 460.673 181Z" fill="#505056"/>
<path d="M119.5 384V0" stroke="#505056"/>
<path d="M6.10352e-05 240L335 241.003" stroke="#505056"/>
</svg>
